<svg width="113" height="112" viewBox="0 0 113 112" fill="none" xmlns="http://www.w3.org/2000/svg">
<mask id="mask0_31_75" style="mask-type:luminance" maskUnits="userSpaceOnUse" x="8" y="8" width="96" height="96">
<path d="M104 8H8V104H104V8Z" fill="white"/>
</mask>
<g mask="url(#mask0_31_75)">
<path d="M56.0001 98.8049C79.6406 98.8049 98.805 79.6405 98.805 56C98.805 32.3596 79.6406 13.1952 56.0001 13.1952C32.3597 13.1952 13.1953 32.3596 13.1953 56C13.1953 79.6405 32.3597 98.8049 56.0001 98.8049Z" fill="white"/>
<g filter="url(#filter0_di_31_75)">
<path d="M56 8C46.5065 8 37.2262 10.8152 29.3326 16.0895C21.4391 21.3638 15.2868 28.8603 11.6538 37.6312C8.0208 46.4021 7.07024 56.0532 8.92233 65.3643C10.7744 74.6754 15.346 83.2282 22.0589 89.9411C28.7718 96.654 37.3246 101.226 46.6357 103.078C55.9468 104.93 65.598 103.979 74.3688 100.346C83.1397 96.7132 90.6362 90.5609 95.9105 82.6674C101.185 74.7738 104 65.4935 104 56C104.018 49.7149 102.799 43.4876 100.41 37.6739C98.022 31.8602 94.512 26.5738 90.0807 22.1166C85.6493 17.6594 80.3835 14.1186 74.5838 11.6965C68.7841 9.27436 62.5641 8.01829 56.2789 8H56ZM56.8136 57.6271L51.816 74.4794H78.5472C78.7243 74.4732 78.9009 74.502 79.0668 74.564C79.2328 74.6261 79.3849 74.7203 79.5144 74.8412C79.6439 74.9621 79.7483 75.1073 79.8217 75.2686C79.8951 75.4299 79.9359 75.604 79.9419 75.7811V76.2228L77.6175 84.2421C77.515 84.6214 77.2866 84.9545 76.9698 85.1868C76.653 85.4191 76.2666 85.5368 75.8741 85.5206H34.9637L41.8208 62.1598L34.1501 64.4843L35.8935 59.138L43.5642 56.8136L53.2107 24.0387C53.3169 23.6616 53.5462 23.3309 53.8621 23.0992C54.178 22.8675 54.5624 22.7482 54.954 22.7603H65.2978C65.4749 22.7541 65.6515 22.7828 65.8174 22.8449C65.9834 22.907 66.1355 23.0012 66.265 23.122C66.3945 23.2429 66.4989 23.3882 66.5723 23.5495C66.6457 23.7107 66.6865 23.8849 66.6925 24.062V24.5036L58.5569 52.1646L66.2276 49.8402L64.6005 55.4189L56.8136 57.6271Z" fill="url(#paint0_linear_31_75)"/>
</g>
</g>
<defs>
<filter id="filter0_di_31_75" x="5" y="7" width="102" height="102" filterUnits="userSpaceOnUse" color-interpolation-filters="sRGB">
<feFlood flood-opacity="0" result="BackgroundImageFix"/>
<feColorMatrix in="SourceAlpha" type="matrix" values="0 0 0 0 0 0 0 0 0 0 0 0 0 0 0 0 0 0 127 0" result="hardAlpha"/>
<feOffset dy="2"/>
<feGaussianBlur stdDeviation="1.5"/>
<feComposite in2="hardAlpha" operator="out"/>
<feColorMatrix type="matrix" values="0 0 0 0 0 0 0 0 0 0 0 0 0 0 0 0 0 0 0.02 0"/>
<feBlend mode="normal" in2="BackgroundImageFix" result="effect1_dropShadow_31_75"/>
<feBlend mode="normal" in="SourceGraphic" in2="effect1_dropShadow_31_75" result="shape"/>
<feColorMatrix in="SourceAlpha" type="matrix" values="0 0 0 0 0 0 0 0 0 0 0 0 0 0 0 0 0 0 127 0" result="hardAlpha"/>
<feOffset/>
<feGaussianBlur stdDeviation="4"/>
<feComposite in2="hardAlpha" operator="arithmetic" k2="-1" k3="1"/>
<feColorMatrix type="matrix" values="0 0 0 0 0.715625 0 0 0 0 0.728516 0 0 0 0 0.75 0 0 0 0.04 0"/>
<feBlend mode="normal" in2="shape" result="effect2_innerShadow_31_75"/>
</filter>
<linearGradient id="paint0_linear_31_75" x1="24" y1="5.5" x2="83.5" y2="110" gradientUnits="userSpaceOnUse">
<stop stop-color="#3F68A8"/>
<stop offset="1" stop-color="#2C5493"/>
</linearGradient>
</defs>
</svg>
